<svg xmlns="http://www.w3.org/2000/svg" viewBox="0 0 64 64" width="64" height="64">
  <g stroke="#e2493e" fill="none" stroke-linecap="round" stroke-linejoin="round">
    <g stroke-width="8">
      <path d="M32 62 L 32 42"/>
      <path d="M32 46 L 22 34"/>
      <path d="M32 44 L 42 32"/>
    </g>
    <g stroke-width="5.5">
      <path d="M22 34 L 16 22"/>
      <path d="M22 35 L 12 28"/>
      <path d="M42 32 L 48 20"/>
      <path d="M42 33 L 52 27"/>
      <path d="M32 42 L 32 22"/>
    </g>
    <g stroke-width="3.5">
      <path d="M16 22 L 12 12"/>
      <path d="M16 22 L 21 13"/>
      <path d="M48 20 L 45 11"/>
      <path d="M48 20 L 53 13"/>
      <path d="M32 22 L 28 13"/>
      <path d="M32 22 L 37 13"/>
    </g>
  </g>
  <g fill="#ff8a65">
    <circle cx="12" cy="12" r="2"/>
    <circle cx="21" cy="13" r="2"/>
    <circle cx="45" cy="11" r="2"/>
    <circle cx="53" cy="13" r="2"/>
    <circle cx="28" cy="13" r="2"/>
    <circle cx="37" cy="13" r="2"/>
    <circle cx="12" cy="28" r="1.8"/>
    <circle cx="52" cy="27" r="1.8"/>
  </g>
</svg>
