<svg xmlns="http://www.w3.org/2000/svg" viewBox="0 0 64 64" width="64" height="64">
  <g stroke="#ec407a" stroke-width="3" fill="none" stroke-linecap="round">
    <path d="M32 62 L 32 44"/>
    <path d="M32 46 Q 14 40 8 20"/>
    <path d="M32 46 Q 22 36 18 10"/>
    <path d="M32 44 Q 32 24 32 6"/>
    <path d="M32 46 Q 42 36 46 10"/>
    <path d="M32 46 Q 50 40 56 20"/>
    <path d="M16 24 Q 32 18 48 24"/>
    <path d="M12 34 Q 32 27 52 34"/>
  </g>
  <g stroke="#f8bbd0" stroke-width="1.4" fill="none" stroke-linecap="round" opacity="0.75">
    <path d="M24 38 Q 20 28 16 14"/>
    <path d="M40 38 Q 44 28 48 14"/>
  </g>
</svg>
