<svg xmlns="http://www.w3.org/2000/svg" viewBox="0 0 64 64" width="64" height="64">
  <polygon points="20,33 7,24 7,42" fill="#e0ad1f"/>
  <g fill="#e0ad1f">
    <polygon points="46.8,30.6 46.8,35.4 57.0,33.0"/>
    <polygon points="46.4,37.3 44.3,41.6 54.5,43.8"/>
    <polygon points="43.1,43.1 39.4,46.1 47.6,52.5"/>
    <polygon points="37.6,46.9 33.0,48.0 37.6,57.4"/>
    <polygon points="31.0,48.0 26.4,46.9 26.4,57.4"/>
    <polygon points="24.6,46.1 20.9,43.1 16.4,52.5"/>
    <polygon points="19.7,41.6 17.6,37.3 9.5,43.8"/>
    <polygon points="17.2,35.4 17.2,30.6 7.0,33.0"/>
    <polygon points="17.6,28.7 19.7,24.4 9.5,22.2"/>
    <polygon points="20.9,22.9 24.6,19.9 16.4,13.5"/>
    <polygon points="26.4,19.1 31.0,18.0 26.4,8.6"/>
    <polygon points="33.0,18.0 37.6,19.1 37.6,8.6"/>
    <polygon points="39.4,19.9 43.1,22.9 47.6,13.5"/>
    <polygon points="44.3,24.4 46.4,28.7 54.5,22.2"/>
  </g>
  <circle cx="32" cy="33" r="16" fill="#ffd84a"/>
  <ellipse cx="34" cy="45" rx="5.5" ry="3" fill="#e0ad1f"/>
  <circle cx="37" cy="28" r="4.4" fill="#fff"/>
  <circle cx="38" cy="28" r="2.1" fill="#1a1a1a"/>
  <circle cx="27" cy="29" r="4" fill="#fff"/>
  <circle cx="28" cy="29" r="1.9" fill="#1a1a1a"/>
  <ellipse cx="33" cy="40" rx="3.2" ry="2.7" fill="#6e3010"/>
</svg>
