<svg xmlns="http://www.w3.org/2000/svg" viewBox="0 0 64 64" width="64" height="64">
  <path d="M44 26 Q 54 23 63 9 Q 59 25 61 40 Q 54 31 44 34 Z" fill="#d9dde1"/>
  <polygon points="22,23 34,24 41,5" fill="#d9dde1"/>
  <polygon points="18,38 28,38 32,52" fill="#d9dde1"/>
  <path d="M5 33 Q 12 22 27 22 Q 40 23 49 30 Q 43 37 29 40 Q 14 42 5 33 Z" fill="#d9dde1"/>
  <g stroke="#9aa3ac" stroke-width="1.4" fill="none" stroke-linecap="round">
    <path d="M21 27 Q 20 32 22 37"/>
    <path d="M24 26 Q 23 32 25 38"/>
    <path d="M27 26 Q 26 32 28 38"/>
  </g>
  <path d="M6 35 Q 11 39 18 37" stroke="#9aa3ac" stroke-width="1.6" fill="none" stroke-linecap="round"/>
  <path d="M10 30 Q 13 32.6 16 30" stroke="#1b1b1b" stroke-width="1.7" fill="none" stroke-linecap="round"/>
</svg>
